<svg id="icon_select" xmlns="http://www.w3.org/2000/svg" width="36" height="36" viewBox="0 0 36 36">
  <g id="bg" fill="#4885ed" stroke="#f5f5f5" stroke-width="1">
    <rect width="36" height="36" rx="4" stroke="none"/>
    <rect x="0.5" y="0.5" width="35" height="35" rx="3.5" fill="none"/>
  </g>
  <g id="Rectangle_210" data-name="Rectangle 210" transform="translate(11 7)" fill="#4885ed" stroke="#fff" stroke-width="2">
    <path d="M2,0H18a0,0,0,0,1,0,0V16a2,2,0,0,1-2,2H0a0,0,0,0,1,0,0V2A2,2,0,0,1,2,0Z" stroke="none"/>
    <path d="M2-1H18a1,1,0,0,1,1,1V16a3,3,0,0,1-3,3H0a1,1,0,0,1-1-1V2A3,3,0,0,1,2-1Z" fill="none"/>
  </g>
  <path id="Path_57" data-name="Path 57" d="M2140,1803.928h8v8" transform="translate(-2121.25 -1794.928)" fill="none" stroke="#fff" stroke-width="8" opacity="0.7"/>
  <path id="Path_58" data-name="Path 58" d="M0,0H8V8" transform="translate(22 23) rotate(180)" fill="none" stroke="#fff" stroke-width="8"/>
  <path id="Path_59" data-name="Path 59" d="M8.119.077a.658.658,0,0,1,.162.8.692.692,0,0,1-.683.463H3.175L5.5,6.851a.724.724,0,0,1,0,.567.749.749,0,0,1-.394.405l-2.05.868a.724.724,0,0,1-.567,0A.749.749,0,0,1,2.086,8.3L-.125,3.064-3.738,6.677a.712.712,0,0,1-.521.22.718.718,0,0,1-.278-.058A.692.692,0,0,1-5,6.156V-11.259a.692.692,0,0,1,.463-.683A.718.718,0,0,1-4.259-12a.688.688,0,0,1,.521.22Z" transform="translate(11.325 22.25)" fill="#4885ed" stroke="#fff" stroke-width="2"/>
</svg>
