<svg id="icon" xmlns="http://www.w3.org/2000/svg" width="36" height="36" viewBox="0 0 36 36">
  <g id="bg" fill="#fff" stroke="#ccc" stroke-width="1">
    <rect width="36" height="36" rx="4" stroke="none"/>
    <rect x="0.5" y="0.5" width="35" height="35" rx="3.5" fill="none"/>
  </g>
  <g id="Group_36" data-name="Group 36" transform="translate(1 0.41)">
    <path id="Path_51" data-name="Path 51" d="M11.75,0h4.58a1.808,1.808,0,0,1,1.814,1.8V18.019a1.808,1.808,0,0,1-1.814,1.8H1.814A1.808,1.808,0,0,1,0,18.019V12.875" transform="translate(11 10.59)" fill="none" stroke="#888b9e" stroke-width="2"/>
    <path id="Path_46" data-name="Path 46" d="M0,0H12.079" transform="translate(26.16 26.342) rotate(180)" fill="none" stroke="#888b9e" stroke-width="2"/>
    <path id="Path_47" data-name="Path 47" d="M0,0H8.211" transform="translate(26.211 23.08) rotate(180)" fill="none" stroke="#888b9e" stroke-width="2"/>
    <path id="Path_48" data-name="Path 48" d="M0,0H4.94" transform="translate(26.16 19.818) rotate(180)" fill="none" stroke="#888b9e" stroke-width="2"/>
    <path id="Path_61" data-name="Path 61" d="M0,0H3.523" transform="translate(26.211 14.818) rotate(180)" fill="none" stroke="#888b9e" stroke-width="2"/>
    <text id="_" data-name="" transform="translate(13 20.59)" fill="#888b9e" font-size="20" font-family="FontAwesome"><tspan x="-8.571" y="0"></tspan></text>
  </g>
</svg>
